<svg xmlns="http://www.w3.org/2000/svg" xmlns:xlink="http://www.w3.org/1999/xlink" contentStyleType="text/css" height="593px" preserveAspectRatio="none" style="width:1573px;height:593px;background:#FFFFFF;" version="1.1" viewBox="0 0 1573 593" width="1573px" zoomAndPan="magnify"><defs/><g><!--class Vehiculo--><g id="elem_Vehiculo"><rect codeLine="2" fill="#F1F1F1" height="234.2109" id="Vehiculo" rx="2.5" ry="2.5" style="stroke:#181818;stroke-width:0.5;" width="171.4961" x="894.5" y="7"/><ellipse cx="949.1465" cy="23" fill="#A9DCDF" rx="11" ry="11" style="stroke:#181818;stroke-width:1.0;"/><path d="M951.334,24.7656 L947.1934,24.7656 L946.7715,25.7969 L947.1934,25.7969 Q947.8027,25.7969 948.0684,26.0313 Q948.334,26.2656 948.334,26.6563 Q948.334,27.0313 948.0684,27.2656 Q947.8027,27.5 947.1934,27.5 L944.8965,27.5 Q944.2871,27.5 944.0371,27.2656 Q943.7715,27.0313 943.7715,26.6406 Q943.7715,26.2656 944.0527,26.0313 Q944.3184,25.7813 944.9434,25.7969 L947.6152,19.1406 L946.5059,19.1406 Q945.8965,19.1406 945.6309,18.9063 Q945.3652,18.6719 945.3652,18.2813 Q945.3652,17.9063 945.6309,17.6719 Q945.8965,17.4375 946.5059,17.4375 L950.1777,17.4375 L953.5684,25.7969 Q954.1621,25.7969 954.3496,25.9375 Q954.7402,26.2031 954.7402,26.6563 Q954.7402,27.0313 954.4746,27.2656 Q954.2246,27.5 953.6152,27.5 L951.3184,27.5 Q950.709,27.5 950.4434,27.2656 Q950.1777,27.0313 950.1777,26.6406 Q950.1777,26.2656 950.4434,26.0313 Q950.709,25.7969 951.3184,25.7969 L951.7402,25.7969 L951.334,24.7656 Z M950.6152,23.0625 L949.2559,19.6875 L947.8809,23.0625 L950.6152,23.0625 Z " fill="#000000"/><text fill="#000000" font-family="sans-serif" font-size="14" font-style="italic" lengthAdjust="spacing" textLength="53.7031" x="969.6465" y="28.7969">Vehiculo</text><line style="stroke:#181818;stroke-width:0.5;" x1="895.5" x2="1064.9961" y1="39" y2="39"/><rect fill="none" height="6" style="stroke:#C82930;stroke-width:1.0;" width="6" x="902.5" y="50.8105"/><text fill="#000000" font-family="sans-serif" font-size="14" lengthAdjust="spacing" textLength="101.1445" x="914.5" y="58.1074">matricula: String</text><rect fill="none" height="6" style="stroke:#C82930;stroke-width:1.0;" width="6" x="902.5" y="69.4316"/><text fill="#000000" font-family="sans-serif" font-size="14" lengthAdjust="spacing" textLength="83.248" x="914.5" y="76.7285">marca: String</text><rect fill="none" height="6" style="stroke:#C82930;stroke-width:1.0;" width="6" x="902.5" y="88.0527"/><text fill="#000000" font-family="sans-serif" font-size="14" lengthAdjust="spacing" textLength="90.2686" x="914.5" y="95.3496">modelo: String</text><rect fill="none" height="6" style="stroke:#C82930;stroke-width:1.0;" width="6" x="902.5" y="106.6738"/><text fill="#000000" font-family="sans-serif" font-size="14" lengthAdjust="spacing" textLength="118.2891" x="914.5" y="113.9707">a&#241;oFabricacion: int</text><rect fill="none" height="6" style="stroke:#C82930;stroke-width:1.0;" width="6" x="902.5" y="125.2949"/><text fill="#000000" font-family="sans-serif" font-size="14" lengthAdjust="spacing" textLength="90.2549" x="914.5" y="132.5918">kilometraje: int</text><rect fill="none" height="6" style="stroke:#C82930;stroke-width:1.0;" width="6" x="902.5" y="143.916"/><text fill="#000000" font-family="sans-serif" font-size="14" lengthAdjust="spacing" textLength="87.9512" x="914.5" y="151.2129">precio: double</text><rect fill="none" height="6" style="stroke:#C82930;stroke-width:1.0;" width="6" x="902.5" y="162.5371"/><text fill="#000000" font-family="sans-serif" font-size="14" lengthAdjust="spacing" textLength="93.3994" x="914.5" y="169.834">estado: Estado</text><rect fill="none" height="6" style="stroke:#C82930;stroke-width:1.0;" width="6" x="902.5" y="181.1582"/><text fill="#000000" font-family="sans-serif" font-size="14" lengthAdjust="spacing" textLength="126.0752" x="914.5" y="188.4551">propietario: Persona</text><line style="stroke:#181818;stroke-width:0.5;" x1="895.5" x2="1064.9961" y1="195.9688" y2="195.9688"/><ellipse cx="905.5" cy="210.7793" fill="#84BE84" rx="3" ry="3" style="stroke:#038048;stroke-width:1.0;"/><text fill="#000000" font-family="sans-serif" font-size="14" lengthAdjust="spacing" textLength="145.4961" x="914.5" y="215.0762">calcularRiesgo(): String</text><ellipse cx="905.5" cy="229.4004" fill="#84BE84" rx="3" ry="3" style="stroke:#038048;stroke-width:1.0;"/><text fill="#000000" font-family="sans-serif" font-size="14" lengthAdjust="spacing" textLength="129.124" x="914.5" y="233.6973">imprimirDatos(): void</text></g><!--class Coche--><g id="elem_Coche"><rect codeLine="16" fill="#F1F1F1" height="122.4844" id="Coche" rx="2.5" ry="2.5" style="stroke:#181818;stroke-width:0.5;" width="211.9785" x="298" y="301"/><ellipse cx="379.5049" cy="317" fill="#A9DCDF" rx="11" ry="11" style="stroke:#181818;stroke-width:1.0;"/><path d="M381.6924,318.7656 L377.5518,318.7656 L377.1299,319.7969 L377.5518,319.7969 Q378.1611,319.7969 378.4268,320.0313 Q378.6924,320.2656 378.6924,320.6563 Q378.6924,321.0313 378.4268,321.2656 Q378.1611,321.5 377.5518,321.5 L375.2549,321.5 Q374.6455,321.5 374.3955,321.2656 Q374.1299,321.0313 374.1299,320.6406 Q374.1299,320.2656 374.4111,320.0313 Q374.6768,319.7813 375.3018,319.7969 L377.9736,313.1406 L376.8643,313.1406 Q376.2549,313.1406 375.9893,312.9063 Q375.7236,312.6719 375.7236,312.2813 Q375.7236,311.9063 375.9893,311.6719 Q376.2549,311.4375 376.8643,311.4375 L380.5361,311.4375 L383.9268,319.7969 Q384.5205,319.7969 384.708,319.9375 Q385.0986,320.2031 385.0986,320.6563 Q385.0986,321.0313 384.833,321.2656 Q384.583,321.5 383.9736,321.5 L381.6768,321.5 Q381.0674,321.5 380.8018,321.2656 Q380.5361,321.0313 380.5361,320.6406 Q380.5361,320.2656 380.8018,320.0313 Q381.0674,319.7969 381.6768,319.7969 L382.0986,319.7969 L381.6924,318.7656 Z M380.9736,317.0625 L379.6143,313.6875 L378.2393,317.0625 L380.9736,317.0625 Z " fill="#000000"/><text fill="#000000" font-family="sans-serif" font-size="14" font-style="italic" lengthAdjust="spacing" textLength="40.4688" x="400.0049" y="322.7969">Coche</text><line style="stroke:#181818;stroke-width:0.5;" x1="299" x2="508.9785" y1="333" y2="333"/><rect fill="none" height="6" style="stroke:#C82930;stroke-width:1.0;" width="6" x="306" y="344.8105"/><text fill="#000000" font-family="sans-serif" font-size="14" lengthAdjust="spacing" textLength="98.0479" x="318" y="352.1074">numPuertas: int</text><rect fill="none" height="6" style="stroke:#C82930;stroke-width:1.0;" width="6" x="306" y="363.4316"/><text fill="#000000" font-family="sans-serif" font-size="14" lengthAdjust="spacing" textLength="185.9785" x="318" y="370.7285">tipoCombustible: Combustible</text><rect fill="none" height="6" style="stroke:#C82930;stroke-width:1.0;" width="6" x="306" y="382.0527"/><text fill="#000000" font-family="sans-serif" font-size="14" lengthAdjust="spacing" textLength="140.8613" x="318" y="389.3496">capacidadMaletero: int</text><rect fill="none" height="6" style="stroke:#C82930;stroke-width:1.0;" width="6" x="306" y="400.6738"/><text fill="#000000" font-family="sans-serif" font-size="14" lengthAdjust="spacing" textLength="110.4824" x="318" y="407.9707">traccion: Traccion</text><line style="stroke:#181818;stroke-width:0.5;" x1="299" x2="508.9785" y1="415.4844" y2="415.4844"/></g><!--class Sedan--><g id="elem_Sedan"><rect codeLine="23" fill="#F1F1F1" height="85.2422" id="Sedan" rx="2.5" ry="2.5" style="stroke:#181818;stroke-width:0.5;" width="167.6475" x="7" y="492.5"/><ellipse cx="66.3325" cy="508.5" fill="#ADD1B2" rx="11" ry="11" style="stroke:#181818;stroke-width:1.0;"/><path d="M69.0981,504.375 Q69.2544,504.1563 69.4419,504.0469 Q69.6294,503.9375 69.8481,503.9375 Q70.2231,503.9375 70.4575,504.2031 Q70.6919,504.4531 70.6919,505.0625 L70.6919,506.5156 Q70.6919,507.125 70.4575,507.3906 Q70.2231,507.6563 69.8481,507.6563 Q69.5044,507.6563 69.3013,507.4531 Q69.0981,507.2656 68.9888,506.75 Q68.9419,506.3906 68.7544,506.2031 Q68.4263,505.8281 67.8169,505.6094 Q67.2075,505.3906 66.5825,505.3906 Q65.8169,505.3906 65.1763,505.7188 Q64.5513,506.0469 64.0513,506.7969 Q63.5669,507.5469 63.5669,508.5781 L63.5669,509.6719 Q63.5669,510.9063 64.4575,511.7344 Q65.3481,512.5469 66.9419,512.5469 Q67.8794,512.5469 68.5356,512.2969 Q68.9263,512.1406 69.3481,511.7031 Q69.6138,511.4375 69.7544,511.3594 Q69.9106,511.2813 70.1138,511.2813 Q70.4419,511.2813 70.6919,511.5469 Q70.9575,511.7969 70.9575,512.1406 Q70.9575,512.4844 70.6138,512.8906 Q70.1138,513.4688 69.3169,513.7969 Q68.2388,514.25 66.9419,514.25 Q65.4263,514.25 64.2231,513.625 Q63.2388,513.125 62.5513,512.0625 Q61.8638,510.9844 61.8638,509.7031 L61.8638,508.5469 Q61.8638,507.2188 62.4731,506.0781 Q63.0981,504.9219 64.1919,504.3125 Q65.2856,503.6875 66.52,503.6875 Q67.2544,503.6875 67.895,503.8594 Q68.5513,504.0156 69.0981,504.375 Z " fill="#000000"/><text fill="#000000" font-family="sans-serif" font-size="14" lengthAdjust="spacing" textLength="40.4824" x="86.8325" y="514.2969">Sedan</text><line style="stroke:#181818;stroke-width:0.5;" x1="8" x2="173.6475" y1="524.5" y2="524.5"/><rect fill="none" height="6" style="stroke:#C82930;stroke-width:1.0;" width="6" x="15" y="536.3105"/><text fill="#000000" font-family="sans-serif" font-size="14" lengthAdjust="spacing" textLength="141.6475" x="27" y="543.6074">espacioInterior: double</text><rect fill="none" height="6" style="stroke:#C82930;stroke-width:1.0;" width="6" x="15" y="554.9316"/><text fill="#000000" font-family="sans-serif" font-size="14" lengthAdjust="spacing" textLength="128.3926" x="27" y="562.2285">nivelConfort: Confort</text><line style="stroke:#181818;stroke-width:0.5;" x1="8" x2="173.6475" y1="569.7422" y2="569.7422"/></g><!--class Suv--><g id="elem_Suv"><rect codeLine="28" fill="#F1F1F1" height="85.2422" id="Suv" rx="2.5" ry="2.5" style="stroke:#181818;stroke-width:0.5;" width="194.123" x="210" y="492.5"/><ellipse cx="290.7495" cy="508.5" fill="#ADD1B2" rx="11" ry="11" style="stroke:#181818;stroke-width:1.0;"/><path d="M293.5151,504.375 Q293.6714,504.1563 293.8589,504.0469 Q294.0464,503.9375 294.2651,503.9375 Q294.6401,503.9375 294.8745,504.2031 Q295.1089,504.4531 295.1089,505.0625 L295.1089,506.5156 Q295.1089,507.125 294.8745,507.3906 Q294.6401,507.6563 294.2651,507.6563 Q293.9214,507.6563 293.7183,507.4531 Q293.5151,507.2656 293.4058,506.75 Q293.3589,506.3906 293.1714,506.2031 Q292.8433,505.8281 292.2339,505.6094 Q291.6245,505.3906 290.9995,505.3906 Q290.2339,505.3906 289.5933,505.7188 Q288.9683,506.0469 288.4683,506.7969 Q287.9839,507.5469 287.9839,508.5781 L287.9839,509.6719 Q287.9839,510.9063 288.8745,511.7344 Q289.7651,512.5469 291.3589,512.5469 Q292.2964,512.5469 292.9526,512.2969 Q293.3433,512.1406 293.7651,511.7031 Q294.0308,511.4375 294.1714,511.3594 Q294.3276,511.2813 294.5308,511.2813 Q294.8589,511.2813 295.1089,511.5469 Q295.3745,511.7969 295.3745,512.1406 Q295.3745,512.4844 295.0308,512.8906 Q294.5308,513.4688 293.7339,513.7969 Q292.6558,514.25 291.3589,514.25 Q289.8433,514.25 288.6401,513.625 Q287.6558,513.125 286.9683,512.0625 Q286.2808,510.9844 286.2808,509.7031 L286.2808,508.5469 Q286.2808,507.2188 286.8901,506.0781 Q287.5151,504.9219 288.6089,504.3125 Q289.7026,503.6875 290.937,503.6875 Q291.6714,503.6875 292.312,503.8594 Q292.9683,504.0156 293.5151,504.375 Z " fill="#000000"/><text fill="#000000" font-family="sans-serif" font-size="14" lengthAdjust="spacing" textLength="24.124" x="311.2495" y="514.2969">Suv</text><line style="stroke:#181818;stroke-width:0.5;" x1="211" x2="403.123" y1="524.5" y2="524.5"/><rect fill="none" height="6" style="stroke:#C82930;stroke-width:1.0;" width="6" x="218" y="536.3105"/><text fill="#000000" font-family="sans-serif" font-size="14" lengthAdjust="spacing" textLength="168.123" x="230" y="543.6074">capacidadOffroad: boolean</text><rect fill="none" height="6" style="stroke:#C82930;stroke-width:1.0;" width="6" x="218" y="554.9316"/><text fill="#000000" font-family="sans-serif" font-size="14" lengthAdjust="spacing" textLength="151.7783" x="230" y="562.2285">alturaLibreSuelo: double</text><line style="stroke:#181818;stroke-width:0.5;" x1="211" x2="403.123" y1="569.7422" y2="569.7422"/></g><!--class Deportivo--><g id="elem_Deportivo"><rect codeLine="33" fill="#F1F1F1" height="103.8633" id="Deportivo" rx="2.5" ry="2.5" style="stroke:#181818;stroke-width:0.5;" width="186.3506" x="439" y="483"/><ellipse cx="497.9668" cy="499" fill="#ADD1B2" rx="11" ry="11" style="stroke:#181818;stroke-width:1.0;"/><path d="M500.7324,494.875 Q500.8887,494.6563 501.0762,494.5469 Q501.2637,494.4375 501.4824,494.4375 Q501.8574,494.4375 502.0918,494.7031 Q502.3262,494.9531 502.3262,495.5625 L502.3262,497.0156 Q502.3262,497.625 502.0918,497.8906 Q501.8574,498.1563 501.4824,498.1563 Q501.1387,498.1563 500.9355,497.9531 Q500.7324,497.7656 500.623,497.25 Q500.5762,496.8906 500.3887,496.7031 Q500.0605,496.3281 499.4512,496.1094 Q498.8418,495.8906 498.2168,495.8906 Q497.4512,495.8906 496.8105,496.2188 Q496.1855,496.5469 495.6855,497.2969 Q495.2012,498.0469 495.2012,499.0781 L495.2012,500.1719 Q495.2012,501.4063 496.0918,502.2344 Q496.9824,503.0469 498.5762,503.0469 Q499.5137,503.0469 500.1699,502.7969 Q500.5605,502.6406 500.9824,502.2031 Q501.248,501.9375 501.3887,501.8594 Q501.5449,501.7813 501.748,501.7813 Q502.0762,501.7813 502.3262,502.0469 Q502.5918,502.2969 502.5918,502.6406 Q502.5918,502.9844 502.248,503.3906 Q501.748,503.9688 500.9512,504.2969 Q499.873,504.75 498.5762,504.75 Q497.0605,504.75 495.8574,504.125 Q494.873,503.625 494.1855,502.5625 Q493.498,501.4844 493.498,500.2031 L493.498,499.0469 Q493.498,497.7188 494.1074,496.5781 Q494.7324,495.4219 495.8262,494.8125 Q496.9199,494.1875 498.1543,494.1875 Q498.8887,494.1875 499.5293,494.3594 Q500.1855,494.5156 500.7324,494.875 Z " fill="#000000"/><text fill="#000000" font-family="sans-serif" font-size="14" lengthAdjust="spacing" textLength="59.917" x="518.4668" y="504.7969">Deportivo</text><line style="stroke:#181818;stroke-width:0.5;" x1="440" x2="624.3506" y1="515" y2="515"/><rect fill="none" height="6" style="stroke:#C82930;stroke-width:1.0;" width="6" x="447" y="526.8105"/><text fill="#000000" font-family="sans-serif" font-size="14" lengthAdjust="spacing" textLength="160.3506" x="459" y="534.1074">aceleracion0a100: double</text><rect fill="none" height="6" style="stroke:#C82930;stroke-width:1.0;" width="6" x="447" y="545.4316"/><text fill="#000000" font-family="sans-serif" font-size="14" lengthAdjust="spacing" textLength="94.9443" x="459" y="552.7285">potenciaCV: int</text><rect fill="none" height="6" style="stroke:#C82930;stroke-width:1.0;" width="6" x="447" y="564.0527"/><text fill="#000000" font-family="sans-serif" font-size="14" lengthAdjust="spacing" textLength="154.1094" x="459" y="571.3496">tieneModoPista: boolean</text><line style="stroke:#181818;stroke-width:0.5;" x1="440" x2="624.3506" y1="578.8633" y2="578.8633"/></g><!--class Moto--><g id="elem_Moto"><rect codeLine="39" fill="#F1F1F1" height="122.4844" id="Moto" rx="2.5" ry="2.5" style="stroke:#181818;stroke-width:0.5;" width="208.834" x="641.5" y="301"/><ellipse cx="726.105" cy="317" fill="#A9DCDF" rx="11" ry="11" style="stroke:#181818;stroke-width:1.0;"/><path d="M728.2925,318.7656 L724.1519,318.7656 L723.73,319.7969 L724.1519,319.7969 Q724.7612,319.7969 725.0269,320.0313 Q725.2925,320.2656 725.2925,320.6563 Q725.2925,321.0313 725.0269,321.2656 Q724.7612,321.5 724.1519,321.5 L721.855,321.5 Q721.2456,321.5 720.9956,321.2656 Q720.73,321.0313 720.73,320.6406 Q720.73,320.2656 721.0112,320.0313 Q721.2769,319.7813 721.9019,319.7969 L724.5737,313.1406 L723.4644,313.1406 Q722.855,313.1406 722.5894,312.9063 Q722.3237,312.6719 722.3237,312.2813 Q722.3237,311.9063 722.5894,311.6719 Q722.855,311.4375 723.4644,311.4375 L727.1362,311.4375 L730.5269,319.7969 Q731.1206,319.7969 731.3081,319.9375 Q731.6987,320.2031 731.6987,320.6563 Q731.6987,321.0313 731.4331,321.2656 Q731.1831,321.5 730.5737,321.5 L728.2769,321.5 Q727.6675,321.5 727.4019,321.2656 Q727.1362,321.0313 727.1362,320.6406 Q727.1362,320.2656 727.4019,320.0313 Q727.6675,319.7969 728.2769,319.7969 L728.6987,319.7969 L728.2925,318.7656 Z M727.5737,317.0625 L726.2144,313.6875 L724.8394,317.0625 L727.5737,317.0625 Z " fill="#000000"/><text fill="#000000" font-family="sans-serif" font-size="14" font-style="italic" lengthAdjust="spacing" textLength="31.124" x="746.605" y="322.7969">Moto</text><line style="stroke:#181818;stroke-width:0.5;" x1="642.5" x2="849.334" y1="333" y2="333"/><rect fill="none" height="6" style="stroke:#C82930;stroke-width:1.0;" width="6" x="649.5" y="344.8105"/><text fill="#000000" font-family="sans-serif" font-size="14" lengthAdjust="spacing" textLength="82.4893" x="661.5" y="352.1074">cilindrada: int</text><rect fill="none" height="6" style="stroke:#C82930;stroke-width:1.0;" width="6" x="649.5" y="363.4316"/><text fill="#000000" font-family="sans-serif" font-size="14" lengthAdjust="spacing" textLength="52.9238" x="661.5" y="370.7285">peso: int</text><rect fill="none" height="6" style="stroke:#C82930;stroke-width:1.0;" width="6" x="649.5" y="382.0527"/><text fill="#000000" font-family="sans-serif" font-size="14" lengthAdjust="spacing" textLength="131.5371" x="661.5" y="389.3496">alturaAsiento: double</text><rect fill="none" height="6" style="stroke:#C82930;stroke-width:1.0;" width="6" x="649.5" y="400.6738"/><text fill="#000000" font-family="sans-serif" font-size="14" lengthAdjust="spacing" textLength="182.834" x="661.5" y="407.9707">tipoTransmision: Transmision</text><line style="stroke:#181818;stroke-width:0.5;" x1="642.5" x2="849.334" y1="415.4844" y2="415.4844"/></g><!--class Scooter--><g id="elem_Scooter"><rect codeLine="46" fill="#F1F1F1" height="66.6211" id="Scooter" rx="2.5" ry="2.5" style="stroke:#181818;stroke-width:0.5;" width="171.5371" x="660" y="501.5"/><ellipse cx="717.3945" cy="517.5" fill="#ADD1B2" rx="11" ry="11" style="stroke:#181818;stroke-width:1.0;"/><path d="M720.1602,513.375 Q720.3164,513.1563 720.5039,513.0469 Q720.6914,512.9375 720.9102,512.9375 Q721.2852,512.9375 721.5195,513.2031 Q721.7539,513.4531 721.7539,514.0625 L721.7539,515.5156 Q721.7539,516.125 721.5195,516.3906 Q721.2852,516.6563 720.9102,516.6563 Q720.5664,516.6563 720.3633,516.4531 Q720.1602,516.2656 720.0508,515.75 Q720.0039,515.3906 719.8164,515.2031 Q719.4883,514.8281 718.8789,514.6094 Q718.2695,514.3906 717.6445,514.3906 Q716.8789,514.3906 716.2383,514.7188 Q715.6133,515.0469 715.1133,515.7969 Q714.6289,516.5469 714.6289,517.5781 L714.6289,518.6719 Q714.6289,519.9063 715.5195,520.7344 Q716.4102,521.5469 718.0039,521.5469 Q718.9414,521.5469 719.5977,521.2969 Q719.9883,521.1406 720.4102,520.7031 Q720.6758,520.4375 720.8164,520.3594 Q720.9727,520.2813 721.1758,520.2813 Q721.5039,520.2813 721.7539,520.5469 Q722.0195,520.7969 722.0195,521.1406 Q722.0195,521.4844 721.6758,521.8906 Q721.1758,522.4688 720.3789,522.7969 Q719.3008,523.25 718.0039,523.25 Q716.4883,523.25 715.2852,522.625 Q714.3008,522.125 713.6133,521.0625 Q712.9258,519.9844 712.9258,518.7031 L712.9258,517.5469 Q712.9258,516.2188 713.5352,515.0781 Q714.1602,513.9219 715.2539,513.3125 Q716.3477,512.6875 717.582,512.6875 Q718.3164,512.6875 718.957,512.8594 Q719.6133,513.0156 720.1602,513.375 Z " fill="#000000"/><text fill="#000000" font-family="sans-serif" font-size="14" lengthAdjust="spacing" textLength="48.248" x="737.8945" y="523.2969">Scooter</text><line style="stroke:#181818;stroke-width:0.5;" x1="661" x2="830.5371" y1="533.5" y2="533.5"/><rect fill="none" height="6" style="stroke:#C82930;stroke-width:1.0;" width="6" x="668" y="545.3105"/><text fill="#000000" font-family="sans-serif" font-size="14" lengthAdjust="spacing" textLength="145.5371" x="680" y="552.6074">espacioBajoAsiento: int</text><line style="stroke:#181818;stroke-width:0.5;" x1="661" x2="830.5371" y1="560.1211" y2="560.1211"/></g><!--class MotoDeportiva--><g id="elem_MotoDeportiva"><rect codeLine="50" fill="#F1F1F1" height="85.2422" id="MotoDeportiva" rx="2.5" ry="2.5" style="stroke:#181818;stroke-width:0.5;" width="190.2129" x="867" y="492.5"/><ellipse cx="912.3359" cy="508.5" fill="#ADD1B2" rx="11" ry="11" style="stroke:#181818;stroke-width:1.0;"/><path d="M915.1016,504.375 Q915.2578,504.1563 915.4453,504.0469 Q915.6328,503.9375 915.8516,503.9375 Q916.2266,503.9375 916.4609,504.2031 Q916.6953,504.4531 916.6953,505.0625 L916.6953,506.5156 Q916.6953,507.125 916.4609,507.3906 Q916.2266,507.6563 915.8516,507.6563 Q915.5078,507.6563 915.3047,507.4531 Q915.1016,507.2656 914.9922,506.75 Q914.9453,506.3906 914.7578,506.2031 Q914.4297,505.8281 913.8203,505.6094 Q913.2109,505.3906 912.5859,505.3906 Q911.8203,505.3906 911.1797,505.7188 Q910.5547,506.0469 910.0547,506.7969 Q909.5703,507.5469 909.5703,508.5781 L909.5703,509.6719 Q909.5703,510.9063 910.4609,511.7344 Q911.3516,512.5469 912.9453,512.5469 Q913.8828,512.5469 914.5391,512.2969 Q914.9297,512.1406 915.3516,511.7031 Q915.6172,511.4375 915.7578,511.3594 Q915.9141,511.2813 916.1172,511.2813 Q916.4453,511.2813 916.6953,511.5469 Q916.9609,511.7969 916.9609,512.1406 Q916.9609,512.4844 916.6172,512.8906 Q916.1172,513.4688 915.3203,513.7969 Q914.2422,514.25 912.9453,514.25 Q911.4297,514.25 910.2266,513.625 Q909.2422,513.125 908.5547,512.0625 Q907.8672,510.9844 907.8672,509.7031 L907.8672,508.5469 Q907.8672,507.2188 908.4766,506.0781 Q909.1016,504.9219 910.1953,504.3125 Q911.2891,503.6875 912.5234,503.6875 Q913.2578,503.6875 913.8984,503.8594 Q914.5547,504.0156 915.1016,504.375 Z " fill="#000000"/><text fill="#000000" font-family="sans-serif" font-size="14" lengthAdjust="spacing" textLength="91.041" x="932.8359" y="514.2969">MotoDeportiva</text><line style="stroke:#181818;stroke-width:0.5;" x1="868" x2="1056.2129" y1="524.5" y2="524.5"/><rect fill="none" height="6" style="stroke:#C82930;stroke-width:1.0;" width="6" x="875" y="536.3105"/><text fill="#000000" font-family="sans-serif" font-size="14" lengthAdjust="spacing" textLength="157.9785" x="887" y="543.6074">velocidadMaxima: double</text><rect fill="none" height="6" style="stroke:#C82930;stroke-width:1.0;" width="6" x="875" y="554.9316"/><text fill="#000000" font-family="sans-serif" font-size="14" lengthAdjust="spacing" textLength="164.2129" x="887" y="562.2285">tieneQuickShifter: boolean</text><line style="stroke:#181818;stroke-width:0.5;" x1="868" x2="1056.2129" y1="569.7422" y2="569.7422"/></g><!--class Camion--><g id="elem_Camion"><rect codeLine="55" fill="#F1F1F1" height="122.4844" id="Camion" rx="2.5" ry="2.5" style="stroke:#181818;stroke-width:0.5;" width="188.6748" x="885.5" y="301"/><ellipse cx="951.4668" cy="317" fill="#ADD1B2" rx="11" ry="11" style="stroke:#181818;stroke-width:1.0;"/><path d="M954.2324,312.875 Q954.3887,312.6563 954.5762,312.5469 Q954.7637,312.4375 954.9824,312.4375 Q955.3574,312.4375 955.5918,312.7031 Q955.8262,312.9531 955.8262,313.5625 L955.8262,315.0156 Q955.8262,315.625 955.5918,315.8906 Q955.3574,316.1563 954.9824,316.1563 Q954.6387,316.1563 954.4355,315.9531 Q954.2324,315.7656 954.123,315.25 Q954.0762,314.8906 953.8887,314.7031 Q953.5605,314.3281 952.9512,314.1094 Q952.3418,313.8906 951.7168,313.8906 Q950.9512,313.8906 950.3105,314.2188 Q949.6855,314.5469 949.1855,315.2969 Q948.7012,316.0469 948.7012,317.0781 L948.7012,318.1719 Q948.7012,319.4063 949.5918,320.2344 Q950.4824,321.0469 952.0762,321.0469 Q953.0137,321.0469 953.6699,320.7969 Q954.0605,320.6406 954.4824,320.2031 Q954.748,319.9375 954.8887,319.8594 Q955.0449,319.7813 955.248,319.7813 Q955.5762,319.7813 955.8262,320.0469 Q956.0918,320.2969 956.0918,320.6406 Q956.0918,320.9844 955.748,321.3906 Q955.248,321.9688 954.4512,322.2969 Q953.373,322.75 952.0762,322.75 Q950.5605,322.75 949.3574,322.125 Q948.373,321.625 947.6855,320.5625 Q946.998,319.4844 946.998,318.2031 L946.998,317.0469 Q946.998,315.7188 947.6074,314.5781 Q948.2324,313.4219 949.3262,312.8125 Q950.4199,312.1875 951.6543,312.1875 Q952.3887,312.1875 953.0293,312.3594 Q953.6855,312.5156 954.2324,312.875 Z " fill="#000000"/><text fill="#000000" font-family="sans-serif" font-size="14" lengthAdjust="spacing" textLength="48.2412" x="971.9668" y="322.7969">Camion</text><line style="stroke:#181818;stroke-width:0.5;" x1="886.5" x2="1073.1748" y1="333" y2="333"/><rect fill="none" height="6" style="stroke:#C82930;stroke-width:1.0;" width="6" x="893.5" y="344.8105"/><text fill="#000000" font-family="sans-serif" font-size="14" lengthAdjust="spacing" textLength="151.7783" x="905.5" y="352.1074">capacidadCarga: double</text><rect fill="none" height="6" style="stroke:#C82930;stroke-width:1.0;" width="6" x="893.5" y="363.4316"/><text fill="#000000" font-family="sans-serif" font-size="14" lengthAdjust="spacing" textLength="77.0342" x="905.5" y="370.7285">numEjes: int</text><rect fill="none" height="6" style="stroke:#C82930;stroke-width:1.0;" width="6" x="893.5" y="382.0527"/><text fill="#000000" font-family="sans-serif" font-size="14" lengthAdjust="spacing" textLength="162.6748" x="905.5" y="389.3496">longitudRemolque: double</text><rect fill="none" height="6" style="stroke:#C82930;stroke-width:1.0;" width="6" x="893.5" y="400.6738"/><text fill="#000000" font-family="sans-serif" font-size="14" lengthAdjust="spacing" textLength="111.2822" x="905.5" y="407.9707">potenciaMotor: int</text><line style="stroke:#181818;stroke-width:0.5;" x1="886.5" x2="1073.1748" y1="415.4844" y2="415.4844"/></g><!--class Persona--><g id="elem_Persona"><rect codeLine="62" fill="#F1F1F1" height="122.4844" id="Persona" rx="2.5" ry="2.5" style="stroke:#181818;stroke-width:0.5;" width="206.5576" x="1109.5" y="301"/><ellipse cx="1182.4565" cy="317" fill="#ADD1B2" rx="11" ry="11" style="stroke:#181818;stroke-width:1.0;"/><path d="M1185.2222,312.875 Q1185.3784,312.6563 1185.5659,312.5469 Q1185.7534,312.4375 1185.9722,312.4375 Q1186.3472,312.4375 1186.5815,312.7031 Q1186.8159,312.9531 1186.8159,313.5625 L1186.8159,315.0156 Q1186.8159,315.625 1186.5815,315.8906 Q1186.3472,316.1563 1185.9722,316.1563 Q1185.6284,316.1563 1185.4253,315.9531 Q1185.2222,315.7656 1185.1128,315.25 Q1185.0659,314.8906 1184.8784,314.7031 Q1184.5503,314.3281 1183.9409,314.1094 Q1183.3315,313.8906 1182.7065,313.8906 Q1181.9409,313.8906 1181.3003,314.2188 Q1180.6753,314.5469 1180.1753,315.2969 Q1179.6909,316.0469 1179.6909,317.0781 L1179.6909,318.1719 Q1179.6909,319.4063 1180.5815,320.2344 Q1181.4722,321.0469 1183.0659,321.0469 Q1184.0034,321.0469 1184.6597,320.7969 Q1185.0503,320.6406 1185.4722,320.2031 Q1185.7378,319.9375 1185.8784,319.8594 Q1186.0347,319.7813 1186.2378,319.7813 Q1186.5659,319.7813 1186.8159,320.0469 Q1187.0815,320.2969 1187.0815,320.6406 Q1187.0815,320.9844 1186.7378,321.3906 Q1186.2378,321.9688 1185.4409,322.2969 Q1184.3628,322.75 1183.0659,322.75 Q1181.5503,322.75 1180.3472,322.125 Q1179.3628,321.625 1178.6753,320.5625 Q1177.9878,319.4844 1177.9878,318.2031 L1177.9878,317.0469 Q1177.9878,315.7188 1178.5972,314.5781 Q1179.2222,313.4219 1180.3159,312.8125 Q1181.4097,312.1875 1182.644,312.1875 Q1183.3784,312.1875 1184.019,312.3594 Q1184.6753,312.5156 1185.2222,312.875 Z " fill="#000000"/><text fill="#000000" font-family="sans-serif" font-size="14" lengthAdjust="spacing" textLength="52.1445" x="1202.9565" y="322.7969">Persona</text><line style="stroke:#181818;stroke-width:0.5;" x1="1110.5" x2="1315.0576" y1="333" y2="333"/><rect fill="none" height="6" style="stroke:#C82930;stroke-width:1.0;" width="6" x="1117.5" y="344.8105"/><text fill="#000000" font-family="sans-serif" font-size="14" lengthAdjust="spacing" textLength="148.6338" x="1129.5" y="352.1074">nombreApellidos: String</text><rect fill="none" height="6" style="stroke:#C82930;stroke-width:1.0;" width="6" x="1117.5" y="363.4316"/><text fill="#000000" font-family="sans-serif" font-size="14" lengthAdjust="spacing" textLength="63.0342" x="1129.5" y="370.7285">dni: String</text><rect fill="none" height="6" style="stroke:#C82930;stroke-width:1.0;" width="6" x="1117.5" y="382.0527"/><text fill="#000000" font-family="sans-serif" font-size="14" lengthAdjust="spacing" textLength="180.5576" x="1129.5" y="389.3496">fechaCaducidadCarnet: Date</text><rect fill="none" height="6" style="stroke:#C82930;stroke-width:1.0;" width="6" x="1117.5" y="400.6738"/><text fill="#000000" font-family="sans-serif" font-size="14" lengthAdjust="spacing" textLength="115.9512" x="1129.5" y="407.9707">a&#241;oNacimiento: int</text><line style="stroke:#181818;stroke-width:0.5;" x1="1110.5" x2="1315.0576" y1="415.4844" y2="415.4844"/></g><!--class Valorable--><g id="elem_Valorable"><rect codeLine="69" fill="#F1F1F1" height="66.6211" id="Valorable" rx="2.5" ry="2.5" style="stroke:#181818;stroke-width:0.5;" width="215.0957" x="1351.5" y="328.5"/><ellipse cx="1425.2222" cy="344.5" fill="#B4A7E5" rx="11" ry="11" style="stroke:#181818;stroke-width:1.0;"/><path d="M1426.1753,341.1406 L1426.1753,347.7969 L1427.894,347.7969 Q1428.5034,347.7969 1428.769,348.0313 Q1429.0347,348.2656 1429.0347,348.6563 Q1429.0347,349.0313 1428.769,349.2656 Q1428.5034,349.5 1427.894,349.5 L1422.7534,349.5 Q1422.144,349.5 1421.8784,349.2656 Q1421.6128,349.0313 1421.6128,348.6406 Q1421.6128,348.2656 1421.8784,348.0313 Q1422.144,347.7969 1422.7534,347.7969 L1424.4722,347.7969 L1424.4722,341.1406 L1422.7534,341.1406 Q1422.144,341.1406 1421.8784,340.9063 Q1421.6128,340.6719 1421.6128,340.2813 Q1421.6128,339.9063 1421.8784,339.6719 Q1422.144,339.4375 1422.7534,339.4375 L1427.894,339.4375 Q1428.5034,339.4375 1428.769,339.6719 Q1429.0347,339.9063 1429.0347,340.2813 Q1429.0347,340.6719 1428.769,340.9063 Q1428.5034,341.1406 1427.894,341.1406 L1426.1753,341.1406 Z " fill="#000000"/><text fill="#000000" font-family="sans-serif" font-size="14" font-style="italic" lengthAdjust="spacing" textLength="59.1514" x="1445.7222" y="350.2969">Valorable</text><line style="stroke:#181818;stroke-width:0.5;" x1="1352.5" x2="1565.5957" y1="360.5" y2="360.5"/><line style="stroke:#181818;stroke-width:0.5;" x1="1352.5" x2="1565.5957" y1="368.5" y2="368.5"/><ellipse cx="1362.5" cy="383.3105" fill="#84BE84" rx="3" ry="3" style="stroke:#038048;stroke-width:1.0;"/><text fill="#000000" font-family="sans-serif" font-size="14" lengthAdjust="spacing" textLength="189.0957" x="1371.5" y="387.6074">calcularDepreciacion(): double</text></g><!--reverse link Vehiculo to Coche--><g id="link_Vehiculo_Coche"><path d="M877.7337,166.904 C775.4137,208.824 620.83,272.16 510.17,317.5 " fill="none" id="Vehiculo-backto-Coche" style="stroke:#181818;stroke-width:1.0;"/><polygon fill="none" points="894.39,160.08,875.459,161.3519,880.0084,172.4561,894.39,160.08" style="stroke:#181818;stroke-width:1.0;"/></g><!--reverse link Vehiculo to Moto--><g id="link_Vehiculo_Moto"><path d="M881.5262,224.3218 C852.1762,253.9218 832.67,273.58 805.83,300.66 " fill="none" id="Vehiculo-backto-Moto" style="stroke:#181818;stroke-width:1.0;"/><polygon fill="none" points="894.2,211.54,877.2656,220.0972,885.7868,228.5464,894.2,211.54" style="stroke:#181818;stroke-width:1.0;"/></g><!--reverse link Vehiculo to Camion--><g id="link_Vehiculo_Camion"><path d="M980,259.27 C980,279.87 980,282.53 980,300.75 " fill="none" id="Vehiculo-backto-Camion" style="stroke:#181818;stroke-width:1.0;"/><polygon fill="none" points="980,241.27,974,259.27,986,259.27,980,241.27" style="stroke:#181818;stroke-width:1.0;"/></g><!--link Vehiculo to Persona--><g id="link_Vehiculo_Persona"><path codeLine="73" d="M1065.77,211.87 C1094.96,241.44 1122.7143,269.5506 1149.3843,296.5606 " fill="none" id="Vehiculo-to-Persona" style="stroke:#181818;stroke-width:1.0;"/><polygon fill="#181818" points="1153.6,300.83,1150.1228,291.6154,1150.0869,297.2721,1144.4302,297.2363,1153.6,300.83" style="stroke:#181818;stroke-width:1.0;"/></g><!--link Vehiculo to Valorable--><g id="link_Vehiculo_Valorable"><path codeLine="74" d="M1065.64,167.19 C1159.42,213.4 1291.634,278.5335 1376.824,320.5135 " fill="none" id="Vehiculo-to-Valorable" style="stroke:#181818;stroke-width:1.0;stroke-dasharray:7.0,7.0;"/><polygon fill="none" points="1392.97,328.47,1379.4761,315.1315,1374.1718,325.8956,1392.97,328.47" style="stroke:#181818;stroke-width:1.0;"/></g><!--reverse link Coche to Sedan--><g id="link_Coche_Sedan"><path codeLine="76" d="M281.8034,429.7594 C238.9134,453.1894 206.21,471.06 166.98,492.49 " fill="none" id="Coche-backto-Sedan" style="stroke:#181818;stroke-width:1.0;"/><polygon fill="none" points="297.6,421.13,278.9269,424.4939,284.6798,435.0249,297.6,421.13" style="stroke:#181818;stroke-width:1.0;"/></g><!--reverse link Coche to Suv--><g id="link_Coche_Suv"><path codeLine="77" d="M360.9182,438.9461 C347.9382,461.8261 342.34,471.71 330.55,492.48 " fill="none" id="Coche-backto-Suv" style="stroke:#181818;stroke-width:1.0;"/><polygon fill="none" points="369.8,423.29,355.6995,435.9855,366.1369,441.9067,369.8,423.29" style="stroke:#181818;stroke-width:1.0;"/></g><!--reverse link Coche to Deportivo--><g id="link_Coche_Deportivo"><path codeLine="78" d="M459.9181,437.6989 C474.4581,457.1189 479.63,464.04 493.64,482.75 " fill="none" id="Coche-backto-Deportivo" style="stroke:#181818;stroke-width:1.0;"/><polygon fill="none" points="449.13,423.29,455.1152,441.2949,464.7211,434.1029,449.13,423.29" style="stroke:#181818;stroke-width:1.0;"/></g><!--reverse link Moto to Scooter--><g id="link_Moto_Scooter"><path codeLine="80" d="M746,441.29 C746,467.44 746,479.05 746,501.07 " fill="none" id="Moto-backto-Scooter" style="stroke:#181818;stroke-width:1.0;"/><polygon fill="none" points="746,423.29,740,441.29,752,441.29,746,423.29" style="stroke:#181818;stroke-width:1.0;"/></g><!--reverse link Moto to MotoDeportiva--><g id="link_Moto_MotoDeportiva"><path codeLine="81" d="M835.9635,434.2218 C864.8935,457.1218 883.1,471.54 909.4,492.36 " fill="none" id="Moto-backto-MotoDeportiva" style="stroke:#181818;stroke-width:1.0;"/><polygon fill="none" points="821.85,423.05,832.2396,438.9263,839.6874,429.5173,821.85,423.05" style="stroke:#181818;stroke-width:1.0;"/></g><!--SRC=[TLJRRjim37ttL-Xnmv0YUms60btQ0WFMBMk6l3CIax2LHK-NeC2wZzetxCT6sOvYEsXU8b4oUNZE4M4ReWSTbROGWjhWWNIoh7vNIdupLKFqEG8BjPQLsvUurnSnDcXv4eH_V_aUjf84DB5RA7AnFtecopLA-ISSXXkFSdEX3AUjnJw88OAHu5txNsvoGnZ1v-ihz84TLEsP-g0qs8pRFnA6FRzxFy8bvrGtdchojn0vvECZawd-L1MCALcoFg32buZEN13KuN2fNYNq4SAvZ-uaKiDBhhSfH99c5cgm6LpJq0Wx1im3M8pe-IAF0Ehe-zclCj8Eu1eDk28OXfoAlpX9G-mdD3ewebsosx6F6Kox6AHAnvAeOFg-sta6ir1RPelWJiBQc3nyfQt7TMfrxokLRBVOI7Owdjq46YtwrWXp-3YVJz0rB2HhWkLcw8T8wF213Qz8n3_3k9JgWIDVA5Nw8KlEU30mCXi67kwxhcw2r8nJ3sOnXNuNQWedBKwR0OUQfGq_5UGpF759c-kL3pBg4rLGFXETkBV42zLm0KKu-P58FwyFj9Do8rfwuq8jmDvoxa3W9VZzj81O-ku9mv0QosvFCPb7hDd-IlY6UBaTFscnVvkbj9DNuF6cGMl9S9YC3EDe4jcXFi0IJ3hXTIZsbPUBWodpJRgfnmHJVWKxSPtQW6KFWhR7S9uFGdqUEAqfynWukxWmDfjTb_5IWbTNhzVdj5NLpObFhxDPzo97WNGSRil3gAhMijsTpZU3oCWOrNy0]--></g></svg>